<?xml version="1.0" encoding="utf-8"?>
<!-- Generator: Adobe Illustrator 16.0.0, SVG Export Plug-In . SVG Version: 6.00 Build 0)  -->
<!DOCTYPE svg PUBLIC "-//W3C//DTD SVG 1.1//EN" "http://www.w3.org/Graphics/SVG/1.1/DTD/svg11.dtd">
<svg version="1.1" id="Layer_1" xmlns="http://www.w3.org/2000/svg" xmlns:xlink="http://www.w3.org/1999/xlink" x="0px" y="0px"
	 width="340px" height="60px" viewBox="-0.05 -1.5 340 60" enable-background="new -0.05 -1.5 340 60" xml:space="preserve">
<g>
	<path fill="#444444" d="M128.349,13.9h8.601v1.6h-8.601V13.9z M128.349,8.6h8.601v1.7h-8.601V8.6z M128.349,3.4h8.601v1.7h-8.601
		V3.4z M125.75,2.5V6h-0.9V3.4h-0.899V2.5H125.75z M124.849,9.6v0.7h1.7v0.9h-2.6v-2l1.699-0.8V7.7h-1.699V6.9h2.6v2L124.849,9.6z
		 M126.55,12.1v4.4h-2.6v-0.9h1.699v-0.8h-1.699v-0.9h1.699V13h-1.699v-0.9H126.55L126.55,12.1z"/>
	<g>
		<path fill="#444444" d="M204.95,6.9l4.5,4.6V8.8c1.301,0,4.7,0,4.7,3.7c0,2-1.3,3.6-3.1,4c2.7-0.4,4.899-2.9,4.899-5.9
			c0-5.7-5.8-5.7-6.6-5.7V2.5L204.95,6.9z"/>
	</g>
	<g>
		<path fill="#444444" d="M234.95,6.9l-4.5,4.6V8.8c-1.3,0-4.699,0-4.699,3.7c0,2,1.3,3.6,3.1,4c-2.7-0.4-4.9-2.9-4.9-5.9
			c0-5.7,5.801-5.7,6.601-5.7V2.5L234.95,6.9z"/>
	</g>
	<path fill="#444444" d="M56.025,3.475L56.025,3.475c-1.301-1.3-3.5-1.3-4.7,0l-3,3c-1.3,1.3-1.3,3.4,0,4.7l0,0
		c0.1,0.1,0.2,0.2,0.399,0.3l1.101-1.1c-0.101-0.1-0.3-0.2-0.4-0.3l0,0c-0.7-0.7-0.7-1.8,0-2.5l3-3c0.7-0.7,1.8-0.7,2.5,0l0,0
		c0.7,0.7,0.7,1.8,0,2.5l-1.399,1.4c0.199,0.6,0.399,1.2,0.399,1.8l2.101-2.1C57.224,6.875,57.224,4.774,56.025,3.475L56.025,3.475z
		 M51.625,7.774c-0.1-0.1-0.2-0.2-0.3-0.3l-1.101,1.1c0.101,0.1,0.301,0.2,0.4,0.3l0,0c0.7,0.7,0.7,1.8,0,2.5l-3,3
		c-0.7,0.7-1.8,0.7-2.5,0l0,0c-0.7-0.7-0.7-1.8,0-2.5l1.3-1.4c-0.2-0.6-0.399-1.2-0.399-1.8l-2.101,2.1c-1.3,1.3-1.3,3.4,0,4.7l0,0
		c1.3,1.3,3.4,1.3,4.7,0l3-3C52.825,11.274,52.825,9.075,51.625,7.774L51.625,7.774L51.625,7.774z"/>
	<path fill="#444444" d="M148.25,3.4h8.7v1.8h-8.7V3.4z M148.25,8.6h8.7v1.8h-8.7V8.6z M148.25,13.9h8.7v1.8h-8.7V13.9z M142.95,4.3
		c0-1,0.8-1.8,1.8-1.8s1.8,0.8,1.8,1.8s-0.8,1.8-1.8,1.8C143.75,6,142.95,5.2,142.95,4.3z M142.95,9.5c0-1,0.8-1.8,1.8-1.8
		s1.8,0.8,1.8,1.8s-0.8,1.8-1.8,1.8S142.95,10.5,142.95,9.5z M142.95,14.7c0-1,0.8-1.8,1.8-1.8s1.8,0.8,1.8,1.8s-0.8,1.8-1.8,1.8
		S142.95,15.7,142.95,14.7z"/>
	<g>
		<path fill="#444444" d="M65.45,7.5c2,0,3.5,1.5,3.5,3.5s-1.5,3.5-3.5,3.5c-1.9,0-3.5-1.5-3.5-3.5v-0.5c0-3.8,3.1-7,7-7v2
			c-1.301,0-2.601,0.5-3.5,1.5c-0.2,0.2-0.301,0.4-0.5,0.6C65.05,7.5,65.25,7.5,65.45,7.5z M74.45,7.5c2,0,3.5,1.5,3.5,3.5
			s-1.5,3.5-3.5,3.5c-1.9,0-3.5-1.5-3.5-3.5v-0.5c0-3.8,3.199-7,7-7v2c-1.301,0-2.601,0.5-3.5,1.5c-0.2,0.2-0.301,0.4-0.5,0.6
			C74.05,7.5,74.25,7.5,74.45,7.5z"/>
	</g>
	<path fill="#444444" d="M249.95,2.5c-3.8,0-7,3.1-7,7s3.2,7,7,7s7-3.1,7-7S253.75,2.5,249.95,2.5z M250.85,13.9h-1.8v-1.8h1.8V13.9
		z M253.45,9.5l-2.6,1.8h-1.8v-0.9l2.6-1.8V7.7h-4.4V6h5.2c0.5,0,0.9,0.4,0.9,0.9v2.6H253.45z"/>
	<path fill="#444444" d="M13.051,8.1c0.5-0.7,0.899-1.6,0.899-2.6c0-2.2-1.8-4-4-4h-5v14h6c2.2,0,4-1.8,4-4
		C14.95,10,14.15,8.8,13.051,8.1z M7.95,3.5h1.601c0.899,0,1.6,0.9,1.6,2s-0.7,2-1.6,2H7.95V3.5z M10.45,13.5h-2.5v-4h2.5
		c0.9,0,1.7,0.9,1.7,2S11.35,13.5,10.45,13.5z"/>
	<path fill="#444444" d="M35.95,2.5v1h-2l-5,12h2v1h-7v-1h2l5-12h-2v-1H35.95z"/>
	<g>
		<path fill="#444444" d="M164.95,11.5h10v2h-10V11.5z M161.95,8.5h16v2h-16V8.5z M161.95,14.5h16v2h-16V14.5z"/>
		<rect x="161.95" y="2.5" fill="#444444" width="16" height="2"/>
		<rect x="164.95" y="5.5" fill="#444444" width="10" height="2"/>
	</g>
	<rect x="181.9" y="8" fill="#444444" width="2.3" height="2"/>
	<rect x="185.3" y="8" fill="#444444" width="2.3" height="2"/>
	<g>
		<path fill="#444444" d="M184.95,11.5h10v2h-10V11.5z M181.95,14.5h16v2h-16V14.5z"/>
		<rect x="181.95" y="2.5" fill="#444444" width="16" height="2"/>
		<rect x="184.95" y="5.5" fill="#444444" width="10" height="2"/>
		<rect x="188.75" y="8.5" fill="#444444" width="2.3" height="2"/>
		<rect x="192.149" y="8.5" fill="#444444" width="2.301" height="2"/>
		<rect x="195.55" y="8.4" fill="#444444" width="2.3" height="2"/>
	</g>
	<g>
		<path fill="#444444" d="M87.15,8.5V5.4c0-0.4,0.2-0.8,0.5-1.1s0.8-0.4,1.1-0.4V2.3c-1.8,0-3.3,1.4-3.3,3.1v2.3
			c0,0.4-0.3,0.8-0.8,0.8h-0.8v1.6h0.8c0.5,0,0.8,0.3,0.8,0.8v2.3c0,1.7,1.5,3.1,3.3,3.1v-1.6c-0.399,0-0.8-0.2-1.1-0.4
			c-0.3-0.3-0.5-0.7-0.5-1.1v-3.1c0-0.4-0.3-0.8-0.8-0.8C86.75,9.3,87.15,9,87.15,8.5L87.15,8.5z"/>
		<path fill="#444444" d="M94.051,10.1v3.1c0,0.4-0.2,0.8-0.5,1.1c-0.301,0.3-0.7,0.4-1.101,0.4v1.6c1.8,0,3.2-1.4,3.2-3.1v-2.3
			c0-0.4,0.3-0.8,0.8-0.8h0.8V8.5h-0.8c-0.5,0-0.8-0.3-0.8-0.8V5.4c0-1.7-1.5-3.1-3.3-3.1v1.6c0.399,0,0.8,0.2,1.1,0.4
			c0.3,0.3,0.5,0.7,0.5,1.1v3.1c0,0.4,0.3,0.8,0.8,0.8C94.45,9.3,94.051,9.6,94.051,10.1L94.051,10.1z"/>
	</g>
	<g>
		<path fill="#444444" d="M117.95,3.5v12h-15v-12H117.95 M118.95,2.5h-17v14h17V2.5L118.95,2.5z"/>
		<path fill="#444444" d="M113.65,6.3c0-0.9,0.7-1.6,1.6-1.6c0.9,0,1.601,0.7,1.601,1.6c0,0.9-0.7,1.6-1.601,1.6
			C114.45,7.9,113.65,7.2,113.65,6.3z"/>
		<polygon fill="#444444" points="116.85,14.3 104.15,14.3 107.25,5.7 111.55,11.1 113.65,9.5 		"/>
	</g>
	<g>
		<g>
			<polygon fill="#444444" points="269.45,9.3 268.65,8.5 265.95,11 268.65,13.5 269.45,12.7 267.65,11 			"/>
			<polygon fill="#444444" points="271.35,12.7 272.15,13.5 274.95,11 272.15,8.5 271.35,9.3 273.15,11 			"/>
		</g>
		<polygon fill="#444444" points="272.25,2.5 272.25,7.2 276.95,7.2 		"/>
		<path fill="#444444" d="M276.95,7.2l-1-1v9.3h-11v-12h8.3l-1-1h-8.3c0,3.125,0,14,0,14h13"/>
	</g>
	<g>
		<path fill="#444444" d="M297.9,15.5h-16v-13h16V15.5z M282.9,14.5h14v-11h-14V14.5z"/>
		<path fill="#444444" d="M295.9,5.5v1l-2.005,0.018l-0.001,4.995L295.9,11.5v1h-5v-1l2.008,0.013l0.001-4.995L290.9,6.5v-1H295.9z"
			/>
		<rect x="288.9" y="3.5" fill="#444444" width="1" height="11"/>
	</g>
	<g>
		<path fill="#444444" d="M301.9,2.5h16v13h-16V2.5z M316.9,3.5h-14v11h14V3.5z"/>
		<path fill="#444444" d="M308.9,5.5v1l-2.009,0.018l0.001,4.995L308.9,11.5v1h-5v-1l2.006,0.013l-0.001-4.995L303.9,6.5v-1H308.9z"
			/>
		<rect x="309.9" y="3.5" fill="#444444" width="1" height="11"/>
	</g>
	<g>
		<path fill="#444444" d="M330.776,14.5c-4.344,0-7.758-4.961-7.9-5.171L322.652,9l0.224-0.329c0.143-0.21,3.557-5.171,7.9-5.171
			s7.758,4.961,7.9,5.171L338.9,9l-0.224,0.329C338.534,9.539,335.12,14.5,330.776,14.5z M323.918,9
			c0.819,1.072,3.622,4.4,6.858,4.4c3.243,0,6.04-3.326,6.858-4.4c-0.819-1.072-3.622-4.4-6.858-4.4
			C327.533,4.6,324.736,7.926,323.918,9z"/>
		<circle fill="#444444" cx="331.276" cy="9" r="3"/>
	</g>
</g>
<g>
	<path fill="#FF9900" d="M128.349,33.9h8.601v1.6h-8.601V33.9z M128.349,28.6h8.601v1.7h-8.601V28.6z M128.349,23.4h8.601V25.1
		h-8.601V23.4z M125.75,22.5V26h-0.9v-2.6h-0.899v-0.9H125.75z M124.849,29.6v0.7h1.7v0.9h-2.6v-2l1.699-0.8v-0.7h-1.699v-0.8h2.6v2
		L124.849,29.6z M126.55,32.1v4.4h-2.6v-0.9h1.699v-0.8h-1.699V33.9h1.699V33h-1.699v-0.9H126.55L126.55,32.1z"/>
	<g>
		<path fill="#FF9900" d="M204.95,26.9l4.5,4.6v-2.7c1.301,0,4.7,0,4.7,3.7c0,2-1.3,3.6-3.1,4c2.7-0.4,4.899-2.9,4.899-5.9
			c0-5.699-5.8-5.699-6.6-5.699v-2.4L204.95,26.9z"/>
	</g>
	<g>
		<path fill="#FF9900" d="M234.95,26.9l-4.5,4.6v-2.7c-1.3,0-4.699,0-4.699,3.7c0,2,1.3,3.6,3.1,4c-2.7-0.4-4.9-2.9-4.9-5.9
			c0-5.699,5.801-5.699,6.601-5.699v-2.4L234.95,26.9z"/>
	</g>
	<path fill="#FF9900" d="M56.025,23.475L56.025,23.475c-1.301-1.3-3.5-1.3-4.7,0l-3,3c-1.3,1.3-1.3,3.4,0,4.7l0,0
		c0.1,0.1,0.2,0.2,0.399,0.3l1.101-1.1c-0.101-0.101-0.3-0.2-0.4-0.301l0,0c-0.7-0.699-0.7-1.8,0-2.5l3-3c0.7-0.699,1.8-0.699,2.5,0
		l0,0c0.7,0.7,0.7,1.801,0,2.5l-1.399,1.4c0.199,0.6,0.399,1.2,0.399,1.8l2.101-2.1C57.224,26.875,57.224,24.774,56.025,23.475
		L56.025,23.475z M51.625,27.774c-0.1-0.1-0.2-0.2-0.3-0.3l-1.101,1.1c0.101,0.101,0.301,0.2,0.4,0.301l0,0c0.7,0.699,0.7,1.8,0,2.5
		l-3,3c-0.7,0.699-1.8,0.699-2.5,0l0,0c-0.7-0.7-0.7-1.801,0-2.5l1.3-1.4c-0.2-0.6-0.399-1.2-0.399-1.8l-2.101,2.1
		c-1.3,1.3-1.3,3.4,0,4.7l0,0c1.3,1.3,3.4,1.3,4.7,0l3-3C52.825,31.274,52.825,29.074,51.625,27.774L51.625,27.774L51.625,27.774z"
		/>
	<path fill="#FF9900" d="M148.25,23.4h8.7v1.8h-8.7V23.4z M148.25,28.6h8.7V30.4h-8.7V28.6z M148.25,33.9h8.7v1.8h-8.7V33.9z
		 M142.95,24.3c0-1,0.8-1.8,1.8-1.8s1.8,0.8,1.8,1.8s-0.8,1.8-1.8,1.8C143.75,26,142.95,25.2,142.95,24.3z M142.95,29.5
		c0-1,0.8-1.8,1.8-1.8s1.8,0.8,1.8,1.8s-0.8,1.8-1.8,1.8S142.95,30.5,142.95,29.5z M142.95,34.7c0-1,0.8-1.8,1.8-1.8
		s1.8,0.8,1.8,1.8s-0.8,1.8-1.8,1.8S142.95,35.7,142.95,34.7z"/>
	<g>
		<path fill="#FF9900" d="M65.45,27.5c2,0,3.5,1.5,3.5,3.5s-1.5,3.5-3.5,3.5c-1.9,0-3.5-1.5-3.5-3.5v-0.5c0-3.8,3.1-7,7-7v2
			c-1.301,0-2.601,0.5-3.5,1.5c-0.2,0.2-0.301,0.4-0.5,0.6C65.05,27.5,65.25,27.5,65.45,27.5z M74.45,27.5c2,0,3.5,1.5,3.5,3.5
			s-1.5,3.5-3.5,3.5c-1.9,0-3.5-1.5-3.5-3.5v-0.5c0-3.8,3.199-7,7-7v2c-1.301,0-2.601,0.5-3.5,1.5c-0.2,0.2-0.301,0.4-0.5,0.6
			C74.05,27.5,74.25,27.5,74.45,27.5z"/>
	</g>
	<path fill="#FF9900" d="M249.95,22.5c-3.8,0-7,3.1-7,7s3.2,7,7,7s7-3.1,7-7S253.75,22.5,249.95,22.5z M250.85,33.9h-1.8V32.1h1.8
		V33.9z M253.45,29.5l-2.6,1.8h-1.8V30.4l2.6-1.801V27.7h-4.4V26h5.2c0.5,0,0.9,0.4,0.9,0.9v2.6H253.45z"/>
	<path fill="#FF9900" d="M13.051,28.1c0.5-0.699,0.899-1.6,0.899-2.6c0-2.2-1.8-4-4-4h-5v14h6c2.2,0,4-1.8,4-4
		C14.95,30,14.15,28.8,13.051,28.1z M7.95,23.5h1.601c0.899,0,1.6,0.9,1.6,2s-0.7,2-1.6,2H7.95V23.5z M10.45,33.5h-2.5v-4h2.5
		c0.9,0,1.7,0.9,1.7,2S11.35,33.5,10.45,33.5z"/>
	<path fill="#FF9900" d="M35.95,22.5v1h-2l-5,12h2v1h-7v-1h2l5-12h-2v-1H35.95z"/>
	<g>
		<path fill="#FF9900" d="M164.95,31.5h10v2h-10V31.5z M161.95,28.5h16v2h-16V28.5z M161.95,34.5h16v2h-16V34.5z"/>
		<rect x="161.95" y="22.5" fill="#FF9900" width="16" height="2"/>
		<rect x="164.95" y="25.5" fill="#FF9900" width="10" height="2"/>
	</g>
	<rect x="181.9" y="28" fill="#FF9900" width="2.3" height="2"/>
	<rect x="185.3" y="28" fill="#FF9900" width="2.3" height="2"/>
	<g>
		<path fill="#FF9900" d="M184.95,31.5h10v2h-10V31.5z M181.95,34.5h16v2h-16V34.5z"/>
		<rect x="181.95" y="22.5" fill="#FF9900" width="16" height="2"/>
		<rect x="184.95" y="25.5" fill="#FF9900" width="10" height="2"/>
		<rect x="188.75" y="28.5" fill="#FF9900" width="2.3" height="2"/>
		<rect x="192.149" y="28.5" fill="#FF9900" width="2.301" height="2"/>
		<rect x="195.55" y="28.4" fill="#FF9900" width="2.3" height="2"/>
	</g>
	<g>
		<path fill="#FF9900" d="M87.15,28.5v-3.1c0-0.4,0.2-0.801,0.5-1.101s0.8-0.399,1.1-0.399V22.3c-1.8,0-3.3,1.399-3.3,3.101v2.299
			c0,0.4-0.3,0.801-0.8,0.801h-0.8v1.6h0.8c0.5,0,0.8,0.301,0.8,0.801v2.299c0,1.701,1.5,3.101,3.3,3.101v-1.601
			c-0.399,0-0.8-0.199-1.1-0.399c-0.3-0.3-0.5-0.7-0.5-1.101v-3.1c0-0.4-0.3-0.8-0.8-0.8C86.75,29.3,87.15,29,87.15,28.5L87.15,28.5
			z"/>
		<path fill="#FF9900" d="M94.051,30.1v3.1c0,0.4-0.2,0.801-0.5,1.101c-0.301,0.3-0.7,0.399-1.101,0.399V36.3
			c1.8,0,3.2-1.399,3.2-3.101V30.9c0-0.4,0.3-0.801,0.8-0.801h0.8v-1.6h-0.8c-0.5,0-0.8-0.301-0.8-0.801V25.4
			c0-1.701-1.5-3.101-3.3-3.101V23.9c0.399,0,0.8,0.199,1.1,0.399c0.3,0.3,0.5,0.7,0.5,1.101v3.1c0,0.4,0.3,0.8,0.8,0.8
			C94.45,29.3,94.051,29.6,94.051,30.1L94.051,30.1z"/>
	</g>
	<g>
		<path fill="#FF9900" d="M117.95,23.5v12h-15v-12H117.95 M118.95,22.5h-17v14h17V22.5L118.95,22.5z"/>
		<path fill="#FF9900" d="M113.65,26.3c0-0.899,0.7-1.6,1.6-1.6c0.9,0,1.601,0.7,1.601,1.6c0,0.9-0.7,1.601-1.601,1.601
			C114.45,27.9,113.65,27.2,113.65,26.3z"/>
		<polygon fill="#FF9900" points="116.85,34.3 104.15,34.3 107.25,25.7 111.55,31.1 113.65,29.5 		"/>
	</g>
	<g>
		<g>
			<polygon fill="#FF9900" points="269.45,29.3 268.65,28.5 265.95,31 268.65,33.5 269.45,32.7 267.65,31 			"/>
			<polygon fill="#FF9900" points="271.35,32.7 272.15,33.5 274.95,31 272.15,28.5 271.35,29.3 273.15,31 			"/>
		</g>
		<polygon fill="#FF9900" points="272.25,22.5 272.25,27.2 276.95,27.2 		"/>
		<path fill="#FF9900" d="M276.95,27.2l-1-1v9.3h-11v-12h8.3l-1-1h-8.3c0,3.125,0,14,0,14h13"/>
	</g>
	<g>
		<path fill="#FF9900" d="M297.9,35.5h-16v-13h16V35.5z M282.9,34.5h14v-11h-14V34.5z"/>
		<path fill="#FF9900" d="M295.9,25.5v1l-2.005,0.018l-0.001,4.996L295.9,31.5v1h-5v-1l2.008,0.014l0.001-4.996L290.9,26.5v-1H295.9
			z"/>
		<rect x="288.9" y="23.5" fill="#FF9900" width="1" height="11"/>
	</g>
	<g>
		<path fill="#FF9900" d="M301.9,22.5h16v13h-16V22.5z M316.9,23.5h-14v11h14V23.5z"/>
		<path fill="#FF9900" d="M308.9,25.5v1l-2.009,0.018l0.001,4.996L308.9,31.5v1h-5v-1l2.006,0.014l-0.001-4.996L303.9,26.5v-1H308.9
			z"/>
		<rect x="309.9" y="23.5" fill="#FF9900" width="1" height="11"/>
	</g>
	<g>
		<path fill="#FF9900" d="M330.776,34.5c-4.344,0-7.758-4.961-7.9-5.171L322.652,29l0.224-0.329c0.143-0.21,3.557-5.171,7.9-5.171
			s7.758,4.961,7.9,5.171L338.9,29l-0.224,0.329C338.534,29.539,335.12,34.5,330.776,34.5z M323.918,29
			c0.819,1.072,3.622,4.4,6.858,4.4c3.243,0,6.04-3.326,6.858-4.4c-0.819-1.072-3.622-4.4-6.858-4.4
			C327.533,24.6,324.736,27.926,323.918,29z"/>
		<circle fill="#FF9900" cx="331.276" cy="29" r="3"/>
	</g>
</g>
<g>
	<path fill="#CECECE" d="M128.349,53.9h8.601v1.6h-8.601V53.9z M128.349,48.6h8.601v1.7h-8.601V48.6z M128.349,43.4h8.601V45.1
		h-8.601V43.4z M125.75,42.5V46h-0.9v-2.6h-0.899v-0.9H125.75z M124.849,49.6v0.7h1.7v0.9h-2.6v-2l1.699-0.8v-0.7h-1.699v-0.8h2.6v2
		L124.849,49.6z M126.55,52.1v4.4h-2.6v-0.9h1.699v-0.8h-1.699V53.9h1.699V53h-1.699v-0.9H126.55L126.55,52.1z"/>
	<g>
		<path fill="#CECECE" d="M204.95,46.9l4.5,4.6v-2.7c1.301,0,4.7,0,4.7,3.7c0,2-1.3,3.6-3.1,4c2.7-0.4,4.899-2.9,4.899-5.9
			c0-5.699-5.8-5.699-6.6-5.699v-2.4L204.95,46.9z"/>
	</g>
	<g>
		<path fill="#CECECE" d="M234.95,46.9l-4.5,4.6v-2.7c-1.3,0-4.699,0-4.699,3.7c0,2,1.3,3.6,3.1,4c-2.7-0.4-4.9-2.9-4.9-5.9
			c0-5.699,5.801-5.699,6.601-5.699v-2.4L234.95,46.9z"/>
	</g>
	<path fill="#CECECE" d="M56.025,43.475L56.025,43.475c-1.301-1.3-3.5-1.3-4.7,0l-3,3c-1.3,1.3-1.3,3.4,0,4.7l0,0
		c0.1,0.1,0.2,0.2,0.399,0.3l1.101-1.1c-0.101-0.101-0.3-0.2-0.4-0.301l0,0c-0.7-0.699-0.7-1.8,0-2.5l3-3c0.7-0.699,1.8-0.699,2.5,0
		l0,0c0.7,0.7,0.7,1.801,0,2.5l-1.399,1.4c0.199,0.6,0.399,1.2,0.399,1.8l2.101-2.1C57.224,46.875,57.224,44.774,56.025,43.475
		L56.025,43.475z M51.625,47.774c-0.1-0.1-0.2-0.2-0.3-0.3l-1.101,1.1c0.101,0.101,0.301,0.2,0.4,0.301l0,0c0.7,0.699,0.7,1.8,0,2.5
		l-3,3c-0.7,0.699-1.8,0.699-2.5,0l0,0c-0.7-0.7-0.7-1.801,0-2.5l1.3-1.4c-0.2-0.6-0.399-1.2-0.399-1.8l-2.101,2.1
		c-1.3,1.3-1.3,3.4,0,4.7l0,0c1.3,1.3,3.4,1.3,4.7,0l3-3C52.825,51.274,52.825,49.074,51.625,47.774L51.625,47.774L51.625,47.774z"
		/>
	<path fill="#CECECE" d="M148.25,43.4h8.7v1.8h-8.7V43.4z M148.25,48.6h8.7V50.4h-8.7V48.6z M148.25,53.9h8.7v1.8h-8.7V53.9z
		 M142.95,44.3c0-1,0.8-1.8,1.8-1.8s1.8,0.8,1.8,1.8s-0.8,1.8-1.8,1.8C143.75,46,142.95,45.2,142.95,44.3z M142.95,49.5
		c0-1,0.8-1.8,1.8-1.8s1.8,0.8,1.8,1.8s-0.8,1.8-1.8,1.8S142.95,50.5,142.95,49.5z M142.95,54.7c0-1,0.8-1.8,1.8-1.8
		s1.8,0.8,1.8,1.8s-0.8,1.8-1.8,1.8S142.95,55.7,142.95,54.7z"/>
	<g>
		<path fill="#CECECE" d="M65.45,47.5c2,0,3.5,1.5,3.5,3.5s-1.5,3.5-3.5,3.5c-1.9,0-3.5-1.5-3.5-3.5v-0.5c0-3.8,3.1-7,7-7v2
			c-1.301,0-2.601,0.5-3.5,1.5c-0.2,0.2-0.301,0.4-0.5,0.6C65.05,47.5,65.25,47.5,65.45,47.5z M74.45,47.5c2,0,3.5,1.5,3.5,3.5
			s-1.5,3.5-3.5,3.5c-1.9,0-3.5-1.5-3.5-3.5v-0.5c0-3.8,3.199-7,7-7v2c-1.301,0-2.601,0.5-3.5,1.5c-0.2,0.2-0.301,0.4-0.5,0.6
			C74.05,47.5,74.25,47.5,74.45,47.5z"/>
	</g>
	<path fill="#CECECE" d="M249.95,42.5c-3.8,0-7,3.1-7,7s3.2,7,7,7s7-3.1,7-7S253.75,42.5,249.95,42.5z M250.85,53.9h-1.8V52.1h1.8
		V53.9z M253.45,49.5l-2.6,1.8h-1.8V50.4l2.6-1.801V47.7h-4.4V46h5.2c0.5,0,0.9,0.4,0.9,0.9v2.6H253.45z"/>
	<path fill="#CECECE" d="M13.051,48.1c0.5-0.699,0.899-1.6,0.899-2.6c0-2.2-1.8-4-4-4h-5v14h6c2.2,0,4-1.8,4-4
		C14.95,50,14.15,48.8,13.051,48.1z M7.95,43.5h1.601c0.899,0,1.6,0.9,1.6,2s-0.7,2-1.6,2H7.95V43.5z M10.45,53.5h-2.5v-4h2.5
		c0.9,0,1.7,0.9,1.7,2S11.35,53.5,10.45,53.5z"/>
	<path fill="#CECECE" d="M35.95,42.5v1h-2l-5,12h2v1h-7v-1h2l5-12h-2v-1H35.95z"/>
	<g>
		<path fill="#CECECE" d="M164.95,51.5h10v2h-10V51.5z M161.95,48.5h16v2h-16V48.5z M161.95,54.5h16v2h-16V54.5z"/>
		<rect x="161.95" y="42.5" fill="#CECECE" width="16" height="2"/>
		<rect x="164.95" y="45.5" fill="#CECECE" width="10" height="2"/>
	</g>
	<rect x="181.9" y="48" fill="#CECECE" width="2.3" height="2"/>
	<rect x="185.3" y="48" fill="#CECECE" width="2.3" height="2"/>
	<g>
		<path fill="#CECECE" d="M184.95,51.5h10v2h-10V51.5z M181.95,54.5h16v2h-16V54.5z"/>
		<rect x="181.95" y="42.5" fill="#CECECE" width="16" height="2"/>
		<rect x="184.95" y="45.5" fill="#CECECE" width="10" height="2"/>
		<rect x="188.75" y="48.5" fill="#CECECE" width="2.3" height="2"/>
		<rect x="192.149" y="48.5" fill="#CECECE" width="2.301" height="2"/>
		<rect x="195.55" y="48.4" fill="#CECECE" width="2.3" height="2"/>
	</g>
	<g>
		<path fill="#CECECE" d="M87.15,48.5v-3.1c0-0.4,0.2-0.801,0.5-1.101s0.8-0.399,1.1-0.399V42.3c-1.8,0-3.3,1.399-3.3,3.101v2.299
			c0,0.4-0.3,0.801-0.8,0.801h-0.8v1.6h0.8c0.5,0,0.8,0.301,0.8,0.801v2.299c0,1.701,1.5,3.101,3.3,3.101v-1.601
			c-0.399,0-0.8-0.199-1.1-0.399c-0.3-0.3-0.5-0.7-0.5-1.101v-3.1c0-0.4-0.3-0.8-0.8-0.8C86.75,49.3,87.15,49,87.15,48.5L87.15,48.5
			z"/>
		<path fill="#CECECE" d="M94.051,50.1v3.1c0,0.4-0.2,0.801-0.5,1.101c-0.301,0.3-0.7,0.399-1.101,0.399V56.3
			c1.8,0,3.2-1.399,3.2-3.101V50.9c0-0.4,0.3-0.801,0.8-0.801h0.8v-1.6h-0.8c-0.5,0-0.8-0.301-0.8-0.801V45.4
			c0-1.701-1.5-3.101-3.3-3.101V43.9c0.399,0,0.8,0.199,1.1,0.399c0.3,0.3,0.5,0.7,0.5,1.101v3.1c0,0.4,0.3,0.8,0.8,0.8
			C94.45,49.3,94.051,49.6,94.051,50.1L94.051,50.1z"/>
	</g>
	<g>
		<path fill="#CECECE" d="M117.95,43.5v12h-15v-12H117.95 M118.95,42.5h-17v14h17V42.5L118.95,42.5z"/>
		<path fill="#CECECE" d="M113.65,46.3c0-0.899,0.7-1.6,1.6-1.6c0.9,0,1.601,0.7,1.601,1.6c0,0.9-0.7,1.601-1.601,1.601
			C114.45,47.9,113.65,47.2,113.65,46.3z"/>
		<polygon fill="#CECECE" points="116.85,54.3 104.15,54.3 107.25,45.7 111.55,51.1 113.65,49.5 		"/>
	</g>
	<g>
		<g>
			<polygon fill="#CECECE" points="269.45,49.3 268.65,48.5 265.95,51 268.65,53.5 269.45,52.7 267.65,51 			"/>
			<polygon fill="#CECECE" points="271.35,52.7 272.15,53.5 274.95,51 272.15,48.5 271.35,49.3 273.15,51 			"/>
		</g>
		<polygon fill="#CECECE" points="272.25,42.5 272.25,47.2 276.95,47.2 		"/>
		<path fill="#CECECE" d="M276.95,47.2l-1-1v9.3h-11v-12h8.3l-1-1h-8.3c0,3.125,0,14,0,14h13"/>
	</g>
	<g>
		<path fill="#CECECE" d="M297.9,55.5h-16v-13h16V55.5z M282.9,54.5h14v-11h-14V54.5z"/>
		<path fill="#CECECE" d="M295.9,45.5v1l-2.005,0.018l-0.001,4.996L295.9,51.5v1h-5v-1l2.008,0.014l0.001-4.996L290.9,46.5v-1H295.9
			z"/>
		<rect x="288.9" y="43.5" fill="#CECECE" width="1" height="11"/>
	</g>
	<g>
		<path fill="#CECECE" d="M301.9,42.5h16v13h-16V42.5z M316.9,43.5h-14v11h14V43.5z"/>
		<path fill="#CECECE" d="M308.9,45.5v1l-2.009,0.018l0.001,4.996L308.9,51.5v1h-5v-1l2.006,0.014l-0.001-4.996L303.9,46.5v-1H308.9
			z"/>
		<rect x="309.9" y="43.5" fill="#CECECE" width="1" height="11"/>
	</g>
	<g>
		<path fill="#CECECE" d="M330.776,54.5c-4.344,0-7.758-4.961-7.9-5.171L322.652,49l0.224-0.329c0.143-0.21,3.557-5.171,7.9-5.171
			s7.758,4.961,7.9,5.171L338.9,49l-0.224,0.329C338.534,49.539,335.12,54.5,330.776,54.5z M323.918,49
			c0.819,1.072,3.622,4.4,6.858,4.4c3.243,0,6.04-3.326,6.858-4.4c-0.819-1.072-3.622-4.4-6.858-4.4
			C327.533,44.6,324.736,47.926,323.918,49z"/>
		<circle fill="#CECECE" cx="331.276" cy="49" r="3"/>
	</g>
</g>
</svg>
